<?xml version="1.0" encoding="utf-8"?>
<!-- Generator: Adobe Illustrator 14.0.0, SVG Export Plug-In . SVG Version: 6.00 Build 43363)  -->
<!DOCTYPE svg PUBLIC "-//W3C//DTD SVG 1.1//EN" "http://www.w3.org/Graphics/SVG/1.1/DTD/svg11.dtd">
<svg version="1.1" xmlns="http://www.w3.org/2000/svg" xmlns:xlink="http://www.w3.org/1999/xlink" x="0px" y="0px" width="2272px"
	 height="1872px" viewBox="0 0 2272 1872" enable-background="new 0 0 2272 1872" xml:space="preserve">
<g id="Background">
	<rect fill="#FFFFFF" width="2272" height="1872"/>
</g>
<g id="_x31_">
	<circle fill="#ABE3F4" cx="1107.5" cy="965.5" r="709.5"/>
	<g>
		<ellipse fill="#CCCCCC" cx="536" cy="1640.75" rx="413" ry="70.25"/>
		<ellipse fill="#CCCCCC" cx="1206" cy="1640.75" rx="413" ry="70.25"/>
		<ellipse fill="#CCCCCC" cx="1751" cy="1640.75" rx="413" ry="70.25"/>
	</g>
	<g>
		<g>
			<rect x="225.849" y="1364.298" fill="#9B6D5D" width="672.315" height="272.547"/>
			<rect x="194.654" y="1354.594" fill="#BB8771" width="734.704" height="48.013"/>
		</g>
		<g>
			<path fill="#FF94A6" d="M2046.881,1316.709h-656.048c-10.645,0-19.274-8.629-19.274-19.274v-89.336
				c0-10.645,8.63-19.274,19.274-19.274h656.048c10.645,0,19.273,8.63,19.273,19.274v89.336
				C2066.154,1308.08,2057.525,1316.709,2046.881,1316.709z"/>
			<rect x="1457.107" y="1188.824" fill="#E2729A" width="32.599" height="127.885"/>
			<rect x="1499.178" y="1188.824" fill="#E2729A" width="32.598" height="127.885"/>
			<g>
				<path fill="#FCC3D0" d="M1965.174,1286.206h-352.386c-10.394,0-18.819-8.426-18.819-18.819v-29.339
					c0-10.394,8.426-18.819,18.819-18.819h352.386c10.394,0,18.82,8.426,18.82,18.819v29.339
					C1983.994,1277.78,1975.567,1286.206,1965.174,1286.206z"/>
			</g>
		</g>
		<g>
			<path fill="#5269D8" d="M2046.881,1445.281h-656.048c-10.645,0-19.274-8.63-19.274-19.274v-89.336
				c0-10.646,8.63-19.274,19.274-19.274h656.048c10.645,0,19.273,8.629,19.273,19.274v89.336
				C2066.154,1436.651,2057.525,1445.281,2046.881,1445.281z"/>
			<rect x="1457.107" y="1317.396" fill="#2E4599" width="32.599" height="127.885"/>
			<rect x="1499.178" y="1317.396" fill="#2E4599" width="32.598" height="127.885"/>
			<rect x="1850.363" y="1317.396" fill="#2E4599" width="179.744" height="127.885"/>
			<g>
				<path fill="#C9EAF2" d="M1784.766,1414.778h-217.56c-6.418,0-11.62-8.427-11.62-18.82v-29.338c0-10.394,5.202-18.82,11.62-18.82
					h217.56c6.418,0,11.62,8.427,11.62,18.82v29.338C1796.386,1406.352,1791.184,1414.778,1784.766,1414.778z"/>
			</g>
		</g>
		<g>
			<path fill="#F4F4F4" stroke="#D3D3D3" stroke-width="7" stroke-miterlimit="10" d="M2024.824,1074.278h-545.842v30.792h555.925
				v-20.708C2034.907,1078.793,2030.393,1074.278,2024.824,1074.278z"/>
			
				<rect x="1478.982" y="1105.07" fill="#F4F4F4" stroke="#D3D3D3" stroke-width="7" stroke-miterlimit="10" width="555.925" height="30.792"/>
			<path fill="#F4F4F4" stroke="#D3D3D3" stroke-width="7" stroke-miterlimit="10" d="M2034.907,1135.862h-555.925v30.792h546.229
				c5.354,0,9.695-4.341,9.695-9.695V1135.862z"/>
			<g>
				<path fill="#FED106" d="M2037.806,1188.824h-535.528c-26.398,0-47.875-21.477-47.875-47.875v-37.916
					c0-26.398,21.477-47.875,47.875-47.875h535.528c7.985,0,14.458,6.473,14.458,14.458s-6.473,14.458-14.458,14.458h-535.528
					c-10.453,0-18.958,8.506-18.958,18.959v37.916c0,10.454,8.505,18.959,18.958,18.959h535.528c7.985,0,14.458,6.473,14.458,14.458
					S2045.791,1188.824,2037.806,1188.824z"/>
			</g>
		</g>
		<g>
			<path fill="#F4F4F4" stroke="#D3D3D3" stroke-width="7" stroke-miterlimit="10" d="M626.243,1263.555H200.667v24.582h435.659
				v-14.499C636.326,1268.068,631.812,1263.555,626.243,1263.555z"/>
			
				<rect x="200.667" y="1288.137" fill="#F4F4F4" stroke="#D3D3D3" stroke-width="7" stroke-miterlimit="10" width="435.659" height="24.582"/>
			<path fill="#F4F4F4" stroke="#D3D3D3" stroke-width="7" stroke-miterlimit="10" d="M636.326,1312.719H200.667v24.582H626.63
				c5.355,0,9.695-4.341,9.695-9.695V1312.719z"/>
			<g>
				<g>
					<path fill="#FFB129" d="M638.597,1355H218.923c-20.688,0-37.518-17.146-37.518-38.221v-30.27
						c0-21.074,16.83-38.221,37.518-38.221h419.674c6.258,0,11.331,5.168,11.331,11.543s-5.073,11.543-11.331,11.543H218.923
						c-8.192,0-14.857,6.789-14.857,15.135v30.27c0,8.346,6.665,15.136,14.857,15.136h419.674c6.258,0,11.331,5.167,11.331,11.542
						S644.854,1355,638.597,1355z"/>
				</g>
			</g>
		</g>
		<g>
			<path fill="#F4F4F4" stroke="#D3D3D3" stroke-width="7" stroke-miterlimit="10" d="M717.326,1161.319H291.75v24.13h435.659
				v-14.047C727.409,1165.834,722.895,1161.319,717.326,1161.319z"/>
			
				<rect x="291.75" y="1185.449" fill="#F4F4F4" stroke="#D3D3D3" stroke-width="7" stroke-miterlimit="10" width="435.659" height="24.131"/>
			<path fill="#F4F4F4" stroke="#D3D3D3" stroke-width="7" stroke-miterlimit="10" d="M727.409,1209.58H291.75v24.131h425.964
				c5.354,0,9.695-4.341,9.695-9.695V1209.58z"/>
			<g>
				<path fill="#823652" d="M729.68,1251.085H310.006c-20.688,0-37.518-16.83-37.518-37.519v-29.713
					c0-20.688,16.83-37.519,37.518-37.519H729.68c6.258,0,11.331,5.073,11.331,11.331s-5.073,11.33-11.331,11.33H310.006
					c-8.192,0-14.857,6.665-14.857,14.857v29.713c0,8.192,6.665,14.857,14.857,14.857H729.68c6.258,0,11.331,5.072,11.331,11.33
					S735.938,1251.085,729.68,1251.085z"/>
			</g>
		</g>
		<g>
			<path fill="#F4F4F4" stroke="#D3D3D3" stroke-width="7" stroke-miterlimit="10" d="M2005.201,1473.528h-618.436v44.382h628.519
				v-34.299C2015.284,1478.043,2010.77,1473.528,2005.201,1473.528z"/>
			
				<rect x="1386.766" y="1517.91" fill="#F4F4F4" stroke="#D3D3D3" stroke-width="7" stroke-miterlimit="10" width="628.519" height="44.383"/>
			<path fill="#F4F4F4" stroke="#D3D3D3" stroke-width="7" stroke-miterlimit="10" d="M2015.284,1562.293h-628.519v44.382h618.823
				c5.354,0,9.695-4.341,9.695-9.695V1562.293z"/>
			<g>
				<g>
					<path fill="#F29015" d="M2018.561,1638.631h-605.457c-29.846,0-54.126-30.956-54.126-69.006v-54.651
						c0-38.05,24.28-69.005,54.126-69.005h605.457c9.028,0,16.347,9.33,16.347,20.84c0,11.509-7.318,20.84-16.347,20.84h-605.457
						c-11.818,0-21.434,12.258-21.434,27.325v54.651c0,15.067,9.615,27.326,21.434,27.326h605.457c9.028,0,16.347,9.33,16.347,20.84
						S2027.589,1638.631,2018.561,1638.631z"/>
				</g>
			</g>
		</g>
		<g>
			<path fill="#F4F4F4" stroke="#D3D3D3" stroke-width="7" stroke-miterlimit="10" d="M1225.523,1613.076V824.087h-40.631v799.073
				h30.548C1221.01,1623.16,1225.523,1618.646,1225.523,1613.076z"/>
			
				<rect x="1144.263" y="824.087" fill="#F4F4F4" stroke="#D3D3D3" stroke-width="7" stroke-miterlimit="10" width="40.63" height="799.073"/>
			<path fill="#F4F4F4" stroke="#D3D3D3" stroke-width="7" stroke-miterlimit="10" d="M1144.263,1623.16V824.087h-40.631v789.378
				c0,5.354,4.341,9.695,9.696,9.695H1144.263z"/>
			<g>
				<g>
					<path fill="#823652" d="M1074.377,1627.325V857.571c0-37.944,28.339-68.814,63.173-68.814h50.032
						c34.833,0,63.172,30.87,63.172,68.814v769.754c0,11.478-8.541,20.782-19.078,20.782s-19.078-9.305-19.078-20.782V857.571
						c0-15.025-11.223-27.25-25.016-27.25h-50.032c-13.794,0-25.016,12.225-25.016,27.25v769.754
						c0,11.478-8.542,20.782-19.079,20.782C1082.918,1648.107,1074.377,1638.803,1074.377,1627.325z"/>
				</g>
			</g>
		</g>
		<g>
			<path fill="#F4F4F4" stroke="#D3D3D3" stroke-width="7" stroke-miterlimit="10" d="M1049.147,1613.076V824.087h-40.631v799.073
				h30.547C1044.632,1623.16,1049.147,1618.646,1049.147,1613.076z"/>
			
				<rect x="967.885" y="824.087" fill="#F4F4F4" stroke="#D3D3D3" stroke-width="7" stroke-miterlimit="10" width="40.631" height="799.073"/>
			<path fill="#F4F4F4" stroke="#D3D3D3" stroke-width="7" stroke-miterlimit="10" d="M967.885,1623.16V824.087h-40.631v789.378
				c0,5.354,4.341,9.695,9.695,9.695H967.885z"/>
			<g>
				<g>
					<path fill="#00ABB2" d="M898,1627.325V857.571c0-37.944,28.339-68.814,63.172-68.814h50.032
						c34.833,0,63.172,30.87,63.172,68.814v769.754c0,11.478-8.541,20.782-19.078,20.782c-10.537,0-19.078-9.305-19.078-20.782
						V857.571c0-15.025-11.223-27.25-25.016-27.25h-50.032c-13.793,0-25.016,12.225-25.016,27.25v769.754
						c0,11.478-8.542,20.782-19.079,20.782C906.542,1648.107,898,1638.803,898,1627.325z"/>
				</g>
			</g>
		</g>
		<g>
			<path fill="#F4F4F4" stroke="#D3D3D3" stroke-width="7" stroke-miterlimit="10" d="M1345.848,1619.889v-514.334h-26.664v524.417
				h16.581C1341.334,1629.972,1345.848,1625.457,1345.848,1619.889z"/>
			
				<rect x="1292.518" y="1105.555" fill="#F4F4F4" stroke="#D3D3D3" stroke-width="7" stroke-miterlimit="10" width="26.666" height="524.417"/>
			<path fill="#F4F4F4" stroke="#D3D3D3" stroke-width="7" stroke-miterlimit="10" d="M1292.518,1629.972v-524.417h-26.665v514.722
				c0,5.354,4.341,9.695,9.695,9.695H1292.518z"/>
			<g>
				<g>
					<path fill="#FF665E" d="M1246.653,1632.705V1127.53c0-24.902,18.599-45.161,41.459-45.161h32.835
						c22.861,0,41.459,20.259,41.459,45.161v505.175c0,7.533-5.605,13.64-12.521,13.64s-12.521-6.106-12.521-13.64V1127.53
						c0-9.86-7.365-17.884-16.418-17.884h-32.835c-9.053,0-16.417,8.023-16.417,17.884v505.175c0,7.533-5.606,13.64-12.521,13.64
						S1246.653,1640.238,1246.653,1632.705z"/>
				</g>
			</g>
		</g>
		<g>
			<path fill="#F4F4F4" stroke="#D3D3D3" stroke-width="7" stroke-miterlimit="10" d="M856.777,1321.875l-91.339-315.932
				l-16.557,4.787l94.14,325.617l6.87-1.985C855.241,1332.815,858.324,1327.225,856.777,1321.875z"/>
			
				<rect x="618.197" y="1167.315" transform="matrix(0.2777 0.9607 -0.9607 0.2777 1698.5747 92.6487)" fill="#F4F4F4" stroke="#D3D3D3" stroke-width="7" stroke-miterlimit="10" width="338.953" height="17.235"/>
			<path fill="#F4F4F4" stroke="#D3D3D3" stroke-width="7" stroke-miterlimit="10" d="M826.464,1341.135l-94.14-325.618
				l-16.557,4.787l91.447,316.304c1.487,5.145,6.862,8.108,12.006,6.621L826.464,1341.135z"/>
			<g>
				<g>
					<path fill="#FF665E" d="M798.477,1351.065l-90.686-313.671c-4.47-15.462,3.441-31.38,17.636-35.483l20.387-5.895
						c14.195-4.104,29.379,5.137,33.85,20.6l90.686,313.67c1.353,4.678-1.032,9.476-5.326,10.717
						c-4.293,1.241-8.871-1.544-10.223-6.222l-90.686-313.67c-1.77-6.123-7.784-9.782-13.404-8.157l-20.388,5.895
						c-5.621,1.625-8.754,7.929-6.983,14.051l90.686,313.671c1.352,4.678-1.032,9.475-5.326,10.717
						C804.406,1358.528,799.83,1355.743,798.477,1351.065z"/>
				</g>
			</g>
		</g>
		<g>
			<path fill-rule="evenodd" clip-rule="evenodd" fill="#336699" d="M1672.736,1006.891c5.738,10.819,14.959,30.738,18.977,45.041
				c4.016,14.304,2.868,22.993-4.14,28.484c-7.009,5.492-19.878,7.787-29.509,6.435c-9.632-1.394-15.984-6.435-22.788-12.172
				c-6.762-5.697-14.017-12.05-22.623-14.509s-18.565-1.024-31.558-2.172c-13.033-1.147-29.1-4.918-41.436-4.55
				c-12.377,0.369-21.025,4.837-32.05,9.673c-10.983,4.836-24.263,10.041-31.845,11.804c-7.623,1.721-9.509,0-12.009-4.14
				c-2.541-4.099-5.737-10.615-6.599-16.845c-0.86-6.229,0.574-12.132,8.525-19.14c7.951-7.009,22.418-15.123,33.729-21.64
				c11.313-6.558,19.468-11.517,26.722-14.632c7.214-3.115,13.525-4.344,35.329-5.164c21.804-0.778,59.182-1.147,78.608-1.188
				c19.426-0.041,20.942,0.246,22.828,1.229C1664.785,994.39,1667.04,996.07,1672.736,1006.891L1672.736,1006.891z"/>
			<path fill-rule="evenodd" clip-rule="evenodd" fill="#FF9933" d="M1609.743,882.052c9.304,1.065,20.984,2.746,26.477,3.812
				c5.491,1.106,4.795,1.598,3.976,2.869c-0.861,1.271-1.804,3.279,2.868,17.583c4.673,14.345,14.919,40.943,20.779,58.484
				c5.861,17.583,7.296,26.107,5.41,32.993c-1.845,6.844-7.05,12.049-16.476,16.845c-9.386,4.754-22.992,9.098-37.009,10.409
				c-14.017,1.271-28.484-0.45-43.936-3.278c-15.492-2.828-31.968-6.722-39.55-14.099s-6.312-18.197-1.722-37.378
				c4.55-19.14,12.337-46.599,17.787-61.723c5.41-15.123,8.443-17.869,14.427-20.533c6.024-2.664,14.959-5.287,22.91-6.353
				C1593.596,880.576,1600.44,881.027,1609.743,882.052L1609.743,882.052z"/>
			<path fill-rule="evenodd" clip-rule="evenodd" fill="#F0A25E" d="M1580.193,867.133c-0.041,2.541-0.573,6.599-1.598,9.877
				c-1.066,3.279-2.664,5.819-3.32,7.91c-0.696,2.09-0.491,3.771,0.451,5.574c0.942,1.804,2.623,3.771,5.983,5.042
				c3.401,1.229,8.565,1.844,13.771,1.394c5.245-0.451,10.614-1.885,14.099-3.525c3.524-1.598,5.205-3.402,6.106-5.205
				c0.942-1.844,1.188-3.647,0.983-5.287c-0.164-1.68-0.738-3.196-1.024-6.106c-0.287-2.951-0.287-7.295-0.41-9.672
				s-0.328-2.828-6.312-3.238c-6.024-0.451-17.787-0.861-23.484-0.574C1579.784,863.608,1580.193,864.592,1580.193,867.133
				L1580.193,867.133z"/>
			<path fill-rule="evenodd" clip-rule="evenodd" fill="#FF6633" d="M1643.638,888.527c5.369,2.213,15.123,6.353,24.181,14.549
				c9.058,8.156,17.418,20.37,23.32,32.132c5.901,11.762,9.304,23.034,9.14,31.435c-0.123,8.442-3.812,14.017-8.32,17.992
				c-4.467,4.017-9.754,6.476-14.468,7.705c-4.754,1.229-8.934,1.229-14.959,0.328c-5.983-0.902-13.771-2.705-18.115-3.853
				c-4.344-1.148-5.205-1.681-6.106-3.812c-0.901-2.132-1.845-5.861-1.312-10.369c0.533-4.468,2.582-9.673,5.902-12.951
				c3.319-3.32,7.95-4.673,11.106-5.369c3.196-0.696,4.918-0.737,5.696-1.024c0.779-0.246,0.615-0.779-3.237-9.673
				c-3.812-8.853-11.312-26.106-15.123-36.599s-3.935-14.263-4.181-17.009c-0.246-2.705-0.574-4.426-0.246-5.164
				S1638.269,886.355,1643.638,888.527L1643.638,888.527z"/>
			<path fill-rule="evenodd" clip-rule="evenodd" fill="#FF6633" d="M1559.005,889.593c-2.418,0.738-8.606,3.033-13.935,7.459
				c-5.328,4.426-9.836,11.024-14.509,20.615c-4.713,9.631-9.631,22.296-14.017,28.074c-4.345,5.82-8.197,4.836-11.106,3.812
				c-2.951-1.024-4.96-2.008-7.664-0.614c-2.705,1.435-6.107,5.246-8.525,9.59c-2.459,4.345-3.894,9.181-3.894,13.279
				c0,4.14,1.435,7.541,3.853,9.836c2.377,2.336,5.697,3.565,9.591,4.386c3.894,0.819,8.401,1.271,12.746,0.778
				c4.344-0.532,8.524-1.967,11.394-3.688s4.427-3.729,9.263-17.172c4.795-13.443,12.828-38.362,17.787-52.83
				c4.918-14.508,6.763-18.607,8.361-21.066C1559.988,889.593,1561.382,888.814,1559.005,889.593L1559.005,889.593z"/>
			<path fill-rule="evenodd" clip-rule="evenodd" fill="#F4C091" d="M1651.794,960.537c2.295,3.196,4.181,7.377,4.099,11.271
				c-0.082,3.853-2.091,7.377-6.189,9.672c-4.058,2.255-10.205,3.279-16.353,2.255c-6.147-0.984-12.296-4.017-15.123-6.886
				c-2.828-2.869-2.296-5.533-1.517-8.156c0.819-2.664,1.885-5.246,2.295-6.967c0.369-1.681,0.082-2.5-1.803-4.263
				c-1.845-1.762-5.328-4.508-5.41-6.64c-0.082-2.131,3.278-3.647,6.844-4.344c3.566-0.697,7.419-0.533,11.681,0.696
				c4.263,1.229,8.935,3.524,12.664,5.779C1646.711,955.209,1649.457,957.381,1651.794,960.537L1651.794,960.537z"/>
			<path fill-rule="evenodd" clip-rule="evenodd" fill="#F4C091" d="M1504.577,947.053c-2.786,4.222-8.36,12.05-10.737,17.828
				c-2.418,5.779-1.599,9.55,0.86,11.886c2.459,2.377,6.558,3.278,10.205,3.114c3.647-0.163,6.845-1.475,9.673-3.442
				c2.827-1.926,5.286-4.549,6.394-7.869c1.106-3.319,0.86-7.336,1.394-10.983c0.532-3.647,1.885-6.927,1.762-10.082
				c-0.082-3.156-1.64-6.188-3.894-7.951c-2.295-1.804-5.328-2.295-7.541-1.763c-2.254,0.574-3.688,2.173-4.468,3.279
				C1507.487,942.176,1507.405,942.831,1504.577,947.053L1504.577,947.053z"/>
			<path fill-rule="evenodd" clip-rule="evenodd" fill="#F4C091" d="M1691.303,1038.243c-7.951,4.591-21.886,14.345-29.304,21.066
				c-7.419,6.722-8.279,10.41-7.46,14.304c0.861,3.893,3.402,8.032,7.173,10.082c3.771,2.09,8.771,2.09,12.951,1.434
				c4.181-0.655,7.541-2.008,10.942-3.811c3.361-1.804,6.804-4.099,10.574-7.296c3.812-3.155,7.992-7.213,10.246-10.696
				c2.254-3.525,2.541-6.476,2.049-9.345c-0.45-2.869-1.68-5.615-2.745-8.729c-1.025-3.156-1.886-6.681-3.279-8.813
				C1701.098,1034.35,1699.213,1033.694,1691.303,1038.243L1691.303,1038.243z"/>
			<path fill-rule="evenodd" clip-rule="evenodd" fill="#F4C091" d="M1474.085,1048.735c5.492,5.86,6.804,10.287,6.353,14.386
				c-0.41,4.139-2.541,7.951-5,9.877c-2.418,1.927-5.164,1.927-8.115,1.435c-2.909-0.451-6.065-1.394-11.639-6.599
				c-5.615-5.205-13.607-14.672-17.665-19.959s-4.14-6.353-2.991-8.033c1.106-1.64,3.401-3.894,5.983-5.902
				c2.582-2.049,5.369-3.852,11.64-1.106C1458.921,1035.579,1468.593,1042.875,1474.085,1048.735L1474.085,1048.735z"/>
			<path fill-rule="evenodd" clip-rule="evenodd" fill="#749B42" d="M1616.465,884.511c-14.55,3.401-43.484,10.205-60.37,13.688
				c-16.927,3.484-21.845,3.607-26.599,2.295c-4.795-1.271-9.427-4.017-16.64-7.213c-7.255-3.197-17.05-6.803-21.968-8.156
				c-4.918-1.394-4.918-0.533-1.476,18.73c3.484,19.222,10.41,56.805,14.181,75.821s4.345,19.427,10.615,22.173
				c6.312,2.745,18.32,7.827,26.927,10.491c8.565,2.664,13.771,2.951,30.779-0.286c16.968-3.238,45.738-10.042,60.083-13.73
				c14.304-3.688,14.14-4.262,11.763-22.336s-7.009-53.649-9.468-72.379c-2.418-18.73-2.705-20.656-2.91-21.599
				C1631.179,881.068,1631.015,881.109,1616.465,884.511L1616.465,884.511z"/>
			<path fill-rule="evenodd" clip-rule="evenodd" fill="#607F34" d="M1609.539,906.191c-10.861,2.049-32.378,6.066-43.157,8.238
				c-10.778,2.131-10.778,2.336-8.483,16.107c2.336,13.771,6.967,41.107,9.262,54.837c2.337,13.73,2.337,13.854,12.542,11.148
				c10.246-2.705,30.697-8.279,40.943-11.189c10.287-2.95,10.369-3.237,8.812-15.819c-1.558-12.624-4.754-37.583-6.476-50.534
				c-1.681-12.951-1.927-13.894-2.172-14.385C1620.604,904.142,1620.399,904.142,1609.539,906.191L1609.539,906.191z"/>
			<path fill="#FED106" d="M1609.825,907.544c-5.45,1.024-13.565,2.541-21.64,4.099c-7.951,1.475-15.983,3.033-21.558,4.139
				c-4.918,0.984-7.418,1.476-8.156,2.951c-0.86,1.639-0.286,5,0.82,11.557c1.312,7.869,3.401,20.165,5.368,31.845l3.895,23.115
				c0.573,3.484,1.024,6.066,1.516,7.91c1.106,4.14,2.787,3.771,9.304,2.05c5.656-1.517,14.099-3.812,22.132-5.984
				c6.885-1.885,13.771-3.812,18.771-5.246c4.754-1.353,7.173-2.09,7.992-3.606c0.901-1.639,0.532-4.713-0.205-10.696
				c-0.86-7.091-2.049-16.558-3.196-25.452c-1.189-9.221-2.378-18.565-3.238-25.041c-0.86-6.517-1.353-9.959-1.64-11.845
				c-0.286-1.762-0.368-2.008-0.409-2.172l0,0c-0.205-0.369,0.246,0.615-0.205,0.656
				C1617.981,906.027,1615.194,906.52,1609.825,907.544L1609.825,907.544z M1587.652,908.896c8.115-1.517,16.23-3.033,21.641-4.058
				c5.45-1.024,8.237-1.557,9.713-1.762c2.377-0.328,2.664,0.082,3.074,0.943c0.164,0.328,0.287,0.778,0.655,2.869
				c0.287,1.967,0.779,5.451,1.64,11.926c0.819,6.271,2.049,15.615,3.238,25.042c1.311,10.164,2.5,19.795,3.196,25.492
				c0.819,6.599,1.229,9.959-0.123,12.377c-1.353,2.5-4.14,3.361-9.632,4.918c-4.508,1.312-11.475,3.238-18.812,5.246
				c-8.401,2.296-16.845,4.591-22.173,5.984c-8.647,2.295-10.901,2.786-12.705-4.017c-0.491-1.968-0.942-4.632-1.557-8.156
				l-3.894-23.115c-1.968-11.681-4.058-23.976-5.369-31.845c-1.188-7.172-1.804-10.82-0.533-13.279
				c1.353-2.623,4.263-3.278,10.082-4.426C1571.3,912.011,1579.456,910.454,1587.652,908.896L1587.652,908.896z"/>
			<path fill-rule="evenodd" clip-rule="evenodd" fill="#749B42" d="M1607.53,930.7c-8.196,1.435-24.509,4.262-32.746,5.779
				c-8.197,1.557-8.361,1.803-8.115,3.566c0.246,1.762,0.901,5.082,1.271,6.803c0.328,1.763,0.369,1.968,8.606,0.656
				c8.197-1.353,24.632-4.222,32.911-5.697c8.278-1.435,8.483-1.435,8.278-3.319c-0.205-1.844-0.778-5.615-1.106-7.459
				c-0.369-1.845-0.492-1.845-0.615-1.804S1615.769,929.266,1607.53,930.7L1607.53,930.7z"/>
			<path fill-rule="evenodd" clip-rule="evenodd" fill="#F4C091" d="M1524.496,759.344c2.049,9.344,5.573,21.886,7.541,32.747
				c1.967,10.82,2.336,19.959,1.353,29.591c-0.942,9.672-3.197,19.836,0,28.484c3.237,8.647,11.968,15.738,23.853,20.123
				c11.886,4.426,26.927,6.106,41.969,4.713c15.082-1.353,30.123-5.779,40.328-14.222s15.533-20.861,19.55-33.566
				c4.017-12.746,6.681-25.738,5.696-42.418c-0.983-16.722-5.655-37.132-15.655-50.78c-10.001-13.647-25.411-20.533-45.042-21.147
				c-19.673-0.615-43.607,5-58.116,10.164s-19.591,9.836-21.845,15.287C1521.873,743.77,1522.446,749.959,1524.496,759.344
				L1524.496,759.344z"/>
			<path fill-rule="evenodd" clip-rule="evenodd" fill="#663300" d="M1583.596,747.951c-5.164,1.844-13.115,9.631-19.468,14.344
				c-6.353,4.713-11.106,6.271-16.804,7.992c-5.656,1.721-12.295,3.565-17.951,3.074s-10.369-3.279-13.565-7.869
				c-3.156-4.59-4.796-10.943-6.968-17.459s-4.877-13.156-5.287-20.165c-0.41-7.049,1.476-14.386,6.435-20
				c4.918-5.615,12.91-9.508,23.32-16.64c10.451-7.172,23.32-17.582,33.771-23.279c10.451-5.697,18.484-6.681,28.403-7.295
				c9.877-0.574,21.64-0.82,34.017,2.131c12.377,2.951,25.369,9.099,36.107,16.926c10.779,7.787,19.345,17.254,27.295,26.353
				c7.91,9.099,15.247,17.829,17.829,28.443s0.45,23.074-1.763,32.009s-4.467,14.304-6.517,19.263c-2.008,5-3.812,9.59-6.394,12.213
				c-2.582,2.664-5.983,3.361-13.524,2.664c-7.501-0.697-19.099-2.828-30.575-10.328c-11.435-7.5-22.746-20.41-32.459-27.337
				c-9.714-6.926-17.828-7.828-23.115-10.328C1591.137,750.164,1588.76,746.106,1583.596,747.951L1583.596,747.951z"/>
			<path fill="none" stroke="#F0A25E" stroke-width="2.4095" stroke-linecap="round" stroke-miterlimit="10" d="M1592.284,829.796
				c-0.983,3.443-1.968,6.885-5.205,8.566c-3.237,1.68-8.771,1.64-13.033,1.024c-4.304-0.615-7.377-1.803-9.222-3.606
				c-1.803-1.762-2.336-4.14-2.909-6.517"/>
			<path fill-rule="evenodd" clip-rule="evenodd" fill="#FFFFFF" d="M1617.325,793.976c-5.123,0.615-8.771,5.287-8.155,10.369
				c0.614,5.123,5.246,8.771,10.369,8.156s8.771-5.246,8.155-10.369C1627.08,797.009,1622.408,793.361,1617.325,793.976
				L1617.325,793.976z"/>
			<path fill-rule="evenodd" clip-rule="evenodd" fill="#FFFFFF" d="M1548.063,795.738c-5.124,0.615-8.771,5.287-8.156,10.369
				c0.614,5.123,5.246,8.771,10.369,8.156c5.123-0.615,8.771-5.246,8.155-10.369
				C1557.816,798.771,1553.186,795.124,1548.063,795.738L1548.063,795.738z"/>
			<path fill-rule="evenodd" clip-rule="evenodd" fill="#1A1A1A" d="M1615.317,804.181c-1.517,0.205-2.623,1.599-2.459,3.156
				c0.205,1.517,1.599,2.623,3.155,2.459c1.517-0.205,2.623-1.598,2.459-3.156C1618.269,805.083,1616.875,804.017,1615.317,804.181
				L1615.317,804.181z"/>
			<path fill-rule="evenodd" clip-rule="evenodd" fill="#1A1A1A" d="M1547.16,805.657c-1.558,0.164-2.664,1.557-2.459,3.115
				c0.164,1.558,1.599,2.664,3.115,2.459c1.557-0.164,2.664-1.598,2.459-3.115C1550.111,806.558,1548.718,805.452,1547.16,805.657
				L1547.16,805.657z"/>
			<path fill-rule="evenodd" clip-rule="evenodd" fill="#F4C091" d="M1667.818,793.402c-10.492,1.229-17.951,10.738-16.681,21.189
				c1.271,10.492,10.738,17.951,21.23,16.681c10.45-1.229,17.91-10.738,16.681-21.23
				C1687.777,799.591,1678.27,792.132,1667.818,793.402L1667.818,793.402z"/>
			<path fill-rule="evenodd" clip-rule="evenodd" fill="#F0A25E" d="M1673.721,807.706c-1.066,0.574-2.46,1.885-3.689,3.565
				c-1.271,1.681-2.418,3.729-2.705,5.656c-0.245,1.926,0.41,3.73,1.722,4.672c1.271,0.983,3.197,1.106,4.754-0.082
				c1.517-1.229,2.664-3.771,3.033-6.353s0-5.164-0.614-6.558C1675.605,807.255,1674.827,807.132,1673.721,807.706L1673.721,807.706
				z"/>
			<path fill-rule="evenodd" clip-rule="evenodd" fill="#F0A25E" d="M1574.128,810.493c-1.106,2.131-2.582,5.738-3.524,8.156
				c-0.983,2.377-1.476,3.525-0.205,4.591c1.312,1.065,4.386,2.09,6.927,2.09c2.5,0,4.508-1.024,5.409-2.172
				c0.943-1.148,0.779-2.459-0.409-5.123c-1.188-2.705-3.443-6.722-4.919-8.484C1575.932,807.829,1575.234,808.402,1574.128,810.493
				L1574.128,810.493z"/>
		</g>
		<g>
			<path fill-rule="evenodd" clip-rule="evenodd" fill="#F4C091" d="M1099.623,550.705c10.492,0,19.058-8.565,19.058-19.017
				c0-10.492-8.565-19.058-19.058-19.058s-19.017,8.565-19.017,19.058C1080.606,542.14,1089.131,550.705,1099.623,550.705
				L1099.623,550.705z"/>
			<path fill-rule="evenodd" clip-rule="evenodd" fill="#666633" d="M975.317,725.545c-18.279,1.762-38.853,6.147-57.911,10.697
				c-19.017,4.59-36.517,9.426-47.214,14.509c-10.656,5.082-14.508,10.492-15.369,21.353c-0.861,10.861,1.271,27.214,8.647,51.026
				c7.418,23.853,20.124,55.206,27.295,71.805c7.172,16.599,8.853,18.443,11.353,21.189c2.5,2.705,5.82,6.352,9.549,5.492
				c3.729-0.902,7.91-6.312,10.697-8.976s4.181-2.623,4.795-4.385c0.656-1.762,0.451-5.369-2.705-23.812
				c-3.197-18.402-9.344-51.681-10.984-68.977c-1.64-17.337,1.271-18.648,5.41-19.714c4.098-1.065,9.508-1.844,25.738-2.213
				c16.271-0.41,43.361-0.41,59.222-1.271c15.861-0.861,20.493-2.582,25.411-9.017c4.877-6.435,10.082-17.583,9.508-28.034
				c-0.574-10.451-6.885-20.123-18.033-25.41C1009.58,724.561,993.596,723.782,975.317,725.545L975.317,725.545z"/>
			<path fill-rule="evenodd" clip-rule="evenodd" fill="#CFD1CF" d="M808.592,529.885c0.124-0.082,0.124-0.082,14.017,21.312
				c13.894,21.435,41.722,64.264,55.616,86.067c13.894,21.803,13.894,22.582,11.066,28.279c-2.828,5.697-8.484,16.353-11.435,21.681
				c-2.951,5.328-3.197,5.369-13.853-11.394c-10.656-16.803-31.763-50.37-42.255-67.296c-10.533-16.927-10.451-17.131-10.984-27.377
				c-0.533-10.246-1.599-30.534-2.049-40.78C808.306,530.172,808.511,529.967,808.592,529.885L808.592,529.885z"/>
			<path fill-rule="evenodd" clip-rule="evenodd" fill="#F4C091" d="M986.629,633.043c-6.106,3.853-16.64,11.435-26.763,20.82
				c-10.123,9.385-19.836,20.533-29.14,26.927c-9.262,6.394-18.115,8.033-27.377,7.992c-9.304-0.041-19.017-1.762-26.968-7.131
				c-7.992-5.328-14.263-14.263-18.279-20.451c-4.057-6.229-5.86-9.672-8.647-9.918c-2.787-0.246-6.558,2.746-8.279,7.623
				c-1.722,4.918-1.435,11.762,1.68,18.688c3.115,6.927,9.099,13.935,18.525,20.615c9.427,6.681,22.295,13.033,34.345,16.517
				c12.09,3.525,23.32,4.181,32.665,2.746c9.303-1.435,16.722-5,24.795-9.221c8.074-4.181,16.804-9.058,24.427-17.377
				c7.582-8.32,14.017-20.083,16.927-30.984c2.869-10.861,2.213-20.861,1.024-25.82C994.416,629.108,992.736,629.19,986.629,633.043
				L986.629,633.043z"/>
			<path fill-rule="evenodd" clip-rule="evenodd" fill="#666633" d="M1084.172,772.39c-2.746,5.164-7.91,13.853-12.992,18.853
				c-5.123,5-10.123,6.312-24.836,6.885c-14.713,0.615-39.099,0.41-52.501,0.902c-13.361,0.451-15.656,1.599-16.435,6.885
				c-0.778,5.328,0,14.714,2.828,30.575c2.828,15.82,7.705,38.074,9.836,50.78c2.09,12.705,1.434,15.82-1.926,19.263
				c-3.402,3.442-9.591,7.172-15.124,6.598c-5.574-0.615-10.492-5.533-13.402-9.426c-2.869-3.894-3.688-6.763-9.181-25.206
				c-5.533-18.443-15.697-52.46-20.697-74.1c-5-21.64-4.836-30.861-4.058-37.419c0.779-6.517,2.131-10.369,10.287-14.426
				c8.197-4.017,23.197-8.238,33.279-11.886c10.082-3.688,15.287-6.762,20.574-10.123s10.656-7.008,20.779-7.008
				c10.082,0,24.877,3.647,37.951,8.935c13.074,5.287,24.427,12.213,30.616,17.705c6.229,5.492,7.254,9.549,7.664,12.418
				C1087.205,765.463,1086.918,767.185,1084.172,772.39L1084.172,772.39z"/>
			<path fill-rule="evenodd" clip-rule="evenodd" fill="#663333" d="M920.603,929.155c-3.32,2.705-8.689,4.959-17.09,6.025
				c-8.443,1.106-19.918,1.106-26.927,0.533c-7.009-0.533-9.591-1.639-12.009-3.729c-2.377-2.131-4.631-5.246-5-9.099
				c-0.41-3.853,0.984-8.443,3.935-11.763c2.951-3.36,7.418-5.451,16.599-7.459c9.14-2.008,22.992-3.935,32.091-3.647
				c9.099,0.287,13.402,2.787,15,6.476c1.598,3.688,0.492,8.606-0.738,12.664C925.275,923.213,923.964,926.41,920.603,929.155
				L920.603,929.155z"/>
			<path fill-rule="evenodd" clip-rule="evenodd" fill="#663333" d="M990.768,924.606c-2.869,3.238-7.787,6.312-15.902,8.771
				c-8.115,2.459-19.467,4.303-26.476,4.877c-7.009,0.574-9.713-0.041-12.459-1.762c-2.705-1.68-5.41-4.385-6.271-8.525
				c-0.861-4.099,0.164-9.59,2.459-13.402c2.295-3.771,5.902-5.902,14.344-8.607c8.484-2.705,21.763-6.024,30.083-8.771
				c8.319-2.746,11.64-4.918,13.935-1.926c2.254,3.033,3.483,11.189,3.688,16.967C994.416,918.008,993.637,921.368,990.768,924.606
				L990.768,924.606z"/>
			<path fill-rule="evenodd" clip-rule="evenodd" fill="#FF9933" d="M1049.335,611.28c10.779,2.049,29.222,6.885,39.509,10.738
				c10.287,3.812,12.418,6.722,13.566,10c1.147,3.237,1.353,6.926-0.656,14.795c-2.049,7.869-6.271,20-8.771,41.804
				c-2.5,21.845-3.279,53.362-4.918,70.001c-1.599,16.64-4.099,18.361-6.722,18.279c-2.582-0.082-5.287-2.008-14.222-10.082
				c-8.935-8.074-24.14-22.337-37.992-30.575c-13.812-8.279-26.312-10.574-35.411-11.107c-9.099-0.492-14.754,0.82-17.049,0.041
				c-2.336-0.779-1.271-3.606,0.696-19.836c1.967-16.229,4.877-45.82,8.115-61.395c3.279-15.615,6.926-17.131,14.836-20.328
				c7.91-3.238,20.041-8.115,27.623-10.902C1035.523,609.928,1038.597,609.231,1049.335,611.28L1049.335,611.28z"/>
			<path fill-rule="evenodd" clip-rule="evenodd" fill="#F0A25E" d="M1012.695,592.1c0.696,6.271,1.844,16.271,1.557,22.5
				c-0.287,6.271-2.008,8.771-2.5,10.779s0.287,3.565,1.516,7.008c1.271,3.443,2.992,8.853,5.287,10.574
				c2.336,1.722,5.205-0.205,11.148-5.205c5.984-5,15-13.074,19.549-18.238c4.508-5.205,4.508-7.5,3.729-9.426
				c-0.778-1.926-2.295-3.484-3.729-8.648c-1.435-5.205-2.787-14.058-4.426-18.771c-1.639-4.713-3.565-5.287-9.139-4.877
				c-5.574,0.369-14.795,1.721-19.345,3.647C1011.834,583.37,1012.039,585.87,1012.695,592.1L1012.695,592.1z"/>
			<path fill-rule="evenodd" clip-rule="evenodd" fill="#F4C091" d="M1093.188,626.731c6.024,1.353,13.156,6.147,17.869,18.074
				c4.713,11.926,7.008,30.943,10.205,54.796c3.156,23.853,7.213,52.501,9.222,67.666c2.008,15.205,2.008,16.926,5,17.131
				s8.935-1.147,15.082,0.492c6.188,1.64,12.5,6.23,15.697,9.508c3.156,3.279,3.156,5.205,2.5,6.353
				c-0.696,1.148-2.008,1.517-13.566,1.722c-11.557,0.205-33.279,0.205-44.222-0.492c-10.984-0.656-11.147-2.008-13.853-16.927
				c-2.705-14.877-7.869-43.361-12.705-69.591c-4.795-26.271-9.222-50.288-10.369-64.223c-1.147-13.935,0.942-17.788,4.508-20.779
				C1082.123,627.51,1087.123,625.42,1093.188,626.731L1093.188,626.731z"/>
			<path fill-rule="evenodd" clip-rule="evenodd" fill="#749B42" d="M811.338,592.018c0.246-0.41,0.615-0.697,0.451-11.229
				c-0.205-10.533-0.984-31.354-1.599-41.559c-0.574-10.246-1.025-9.836-1.475-9.426c-0.492,0.41-0.984,0.861-1.23,1.106
				c-0.287,0.246-0.287,0.287,0.205,10.533c0.451,10.205,1.353,30.615,1.967,40.984c0.615,10.41,0.901,10.738,1.106,10.656
				C810.97,592.96,811.093,592.427,811.338,592.018L811.338,592.018z"/>
			<path fill-rule="evenodd" clip-rule="evenodd" fill="#749B42" d="M890.315,549.722c-16.435,7.869-48.936,23.812-65.493,32.009
				c-16.517,8.156-17.09,8.525-7.213,26.148c9.918,17.583,30.287,52.378,40.861,69.796c10.574,17.418,11.353,17.418,27.5,11.476
				c16.107-5.943,47.624-17.829,63.362-24.017c15.738-6.229,15.738-6.722,6.312-25.861c-9.426-19.099-28.279-56.804-37.87-76.026
				c-9.549-19.263-9.877-20.042-10.246-20.574C907.201,542.14,906.791,541.894,890.315,549.722L890.315,549.722z"/>
			<path fill-rule="evenodd" clip-rule="evenodd" fill="#607F34" d="M887.856,567.058c-11.64,5.574-34.837,16.517-46.477,22.336
				c-11.639,5.82-11.721,6.517-3.524,20.738c8.156,14.221,24.591,42.009,32.952,55.78c8.36,13.729,8.647,13.443,20,8.688
				c11.353-4.754,33.771-13.976,45.042-18.853c11.312-4.836,11.517-5.328,4.099-20.205c-7.418-14.836-22.418-44.058-30.124-58.936
				s-8.156-15.369-8.607-15.574c-0.41-0.205-0.902-0.123-1.188,0.041C899.701,561.238,899.537,561.443,887.856,567.058
				L887.856,567.058z"/>
			<path fill-rule="evenodd" clip-rule="evenodd" fill="#FED106" d="M853.594,618.862c3.36,6.763,10,20.042,13.565,26.64
				c3.566,6.557,4.058,6.475,13.361,2.213c9.345-4.303,27.5-12.746,36.763-17.09c9.304-4.304,9.672-4.508,6.64-11.148
				c-3.033-6.64-9.467-19.713-13.033-26.107c-3.524-6.394-4.221-6.107-13.648-2.008c-9.467,4.139-27.665,12.049-37.009,16.066
				c-9.385,3.976-9.836,4.017-10,4.181C850.028,611.772,850.191,612.059,853.594,618.862L853.594,618.862z"/>
			<path fill-rule="evenodd" clip-rule="evenodd" fill="#F2B27A" d="M944.169,520.417c10.492,0,19.017-8.565,19.017-19.017
				c0-10.492-8.524-19.058-19.017-19.058c-10.492,0-19.058,8.566-19.058,19.058C925.111,511.852,933.677,520.417,944.169,520.417
				L944.169,520.417z"/>
			<path fill-rule="evenodd" clip-rule="evenodd" fill="#F0A25E" d="M943.718,498.942c-1.721,0.205-5.984,2.336-7.746,4.549
				c-1.762,2.213-1.065,4.508,0.164,6.107c1.229,1.557,2.992,2.336,4.221,1.762c1.229-0.615,2.008-2.623,2.5-4.426
				c0.492-1.763,0.738-3.279,1.271-4.918C944.661,500.417,945.48,498.696,943.718,498.942L943.718,498.942z"/>
			<path fill-rule="evenodd" clip-rule="evenodd" fill="#F4C091" d="M945.604,427.588c-12.049,17.706-12.787,31.558-11.435,44.059
				c1.312,12.459,4.795,23.648,5.656,38.238c0.861,14.631-0.861,32.706,1.353,46.066c2.213,13.361,8.361,22.009,19.59,29.427
				c11.271,7.377,27.624,13.566,46.354,15.656c18.771,2.131,39.919,0.205,56.723-13.074c16.844-13.279,29.345-37.87,36.435-64.591
				c7.131-26.763,8.853-55.575,7.213-74.059c-1.639-18.443-6.598-26.517-24.426-38.525c-17.787-12.049-48.362-27.992-75.248-25.205
				C980.891,388.366,957.612,409.883,945.604,427.588L945.604,427.588z"/>
			<path d="M965.768,541.566c0-0.738,0.656-1.353,1.393-1.353c0.779,0,1.394,0.615,1.394,1.393c-0.041,1.64-0.041,3.279,0.328,4.795
				c0.369,1.435,1.106,2.828,2.582,4.099c1.68,1.434,4.221,2.787,7.336,3.812c2.992,0.983,6.517,1.721,10.246,1.967
				c3.935,0.287,8.074,0.082,11.804-0.574c3.524-0.615,6.681-1.681,8.935-3.074c2.213-1.353,3.524-3.074,4.467-5.042
				c0.983-2.008,1.517-4.303,2.049-6.598c0.164-0.738,0.901-1.229,1.639-1.066c0.738,0.205,1.229,0.943,1.025,1.68
				c-0.533,2.459-1.107,4.918-2.213,7.173c-1.107,2.377-2.787,4.549-5.533,6.229c-2.541,1.598-6.025,2.746-9.877,3.442
				c-3.976,0.697-8.32,0.902-12.5,0.615c-3.934-0.287-7.664-1.065-10.901-2.131c-3.484-1.148-6.353-2.664-8.279-4.344
				c-1.967-1.681-2.992-3.566-3.442-5.492C965.727,545.254,965.768,543.41,965.768,541.566L965.768,541.566z"/>
			<path fill-rule="evenodd" clip-rule="evenodd" fill="#F0A25E" d="M985.728,513.246c-2.254,4.672-4.754,11.066-5.124,14.918
				c-0.41,3.853,1.353,5.205,5.41,5.983c4.058,0.779,10.492,1.024,13.648-0.574c3.156-1.557,3.115-5,1.312-10.451
				c-1.845-5.451-5.369-12.951-8.156-15.205C990.031,505.623,987.981,508.614,985.728,513.246L985.728,513.246z"/>
			<path fill-rule="evenodd" clip-rule="evenodd" fill="#F0A25E" d="M1106.713,529.721c-1.762,0.205-6.025,2.336-7.787,4.549
				s-1.065,4.508,0.164,6.106c1.23,1.558,2.992,2.336,4.222,1.763c1.271-0.615,2.008-2.623,2.5-4.426
				c0.533-1.763,0.779-3.279,1.271-4.918C1107.615,531.197,1108.435,529.475,1106.713,529.721L1106.713,529.721z"/>
			<path fill-rule="evenodd" clip-rule="evenodd" fill="#FFFFFF" d="M1026.958,499.106c-5.041,0.901-8.402,5.779-7.459,10.861
				c0.901,5.041,5.779,8.402,10.861,7.459c5.041-0.942,8.402-5.779,7.459-10.861C1036.876,501.524,1032.04,498.163,1026.958,499.106
				L1026.958,499.106z"/>
			<path fill-rule="evenodd" clip-rule="evenodd" fill="#FFFFFF" d="M959.333,499.68c-5.082,0.942-8.442,5.779-7.5,10.861
				c0.943,5.041,5.82,8.402,10.861,7.459c5.082-0.901,8.401-5.779,7.5-10.861C969.251,502.098,964.374,498.737,959.333,499.68
				L959.333,499.68z"/>
			<path fill-rule="evenodd" clip-rule="evenodd" d="M1026.63,509.721c-1.558,0.287-2.541,1.721-2.254,3.279
				c0.246,1.517,1.721,2.541,3.279,2.254c1.517-0.287,2.541-1.763,2.254-3.279C1029.622,510.458,1028.146,509.434,1026.63,509.721
				L1026.63,509.721z"/>
			<path fill-rule="evenodd" clip-rule="evenodd" d="M959.989,508.082c-1.517,0.287-2.541,1.762-2.254,3.279
				c0.287,1.557,1.762,2.582,3.279,2.295s2.541-1.762,2.254-3.279C962.981,508.819,961.546,507.794,959.989,508.082L959.989,508.082
				z"/>
			<path fill-rule="evenodd" clip-rule="evenodd" d="M955.686,460.048c7.5,4.713,20.205,15.861,39.14,21.066
				s44.14,4.426,58.936,4.344c14.795-0.123,19.222,0.451,22.788,3.074c3.565,2.582,6.229,7.213,7.582,16.435
				c1.353,9.221,1.353,23.074,2.787,29.795c1.475,6.722,4.344,6.353,9.344,2.91c5-3.484,12.09-10,18.156-23.197
				c6.066-13.156,11.066-32.952,12.706-51.804c1.639-18.853-0.082-36.722-7.049-52.788c-7.008-16.066-19.181-30.288-35.697-36.435
				c-16.476-6.148-37.255-4.262-51.436-6.353c-14.181-2.131-21.763-8.279-35.861-6.558c-14.099,1.762-34.673,11.353-49.755,26.066
				c-15.082,14.713-24.713,34.509-25.451,55.165c-0.779,20.656,7.336,42.132,11.271,52.296c3.935,10.123,3.73,8.894,4.754,1.147
				c1.024-7.787,3.361-22.091,5.656-30.124C945.891,457.097,948.186,455.334,955.686,460.048L955.686,460.048z"/>
		</g>
		<g>
			<path fill-rule="evenodd" clip-rule="evenodd" fill="#F4C091" d="M1964.213,693.863c-12.891,0.803-22.704,11.91-21.856,24.756
				c0.803,12.891,11.909,22.704,24.756,21.901c12.891-0.803,22.704-11.91,21.901-24.801S1977.104,693.016,1964.213,693.863
				L1964.213,693.863z"/>
			<path fill-rule="evenodd" clip-rule="evenodd" fill="#1D3B66" d="M1823.883,1047.767c10.125,5.754,25.113,13.292,43.58,16.771
				c18.512,3.479,40.502,2.854,63.741-2.988c23.195-5.799,47.595-16.816,60.754-26.451c13.203-9.635,15.121-17.843,8.832-24.935
				c-6.29-7.093-20.831-13.025-55.312-14.007c-34.525-1.025-88.944,2.944-117.18,7.405c-28.28,4.505-30.287,9.501-30.154,14.72
				c0.179,5.174,2.543,10.526,6.379,15.166C1808.359,1038.087,1813.713,1042.057,1823.883,1047.767L1823.883,1047.767z"/>
			<path fill-rule="evenodd" clip-rule="evenodd" fill="#3642DD" d="M1858.407,806.404c-13.024,6.914-41.126,20.742-63.34,34.436
				c-22.214,13.649-38.584,27.165-46.747,34.034c-8.207,6.825-8.207,7.048-3.479,14.765c4.729,7.672,14.141,22.793,19.537,30.287
				c5.397,7.449,6.691,7.226,14.363,1.071c7.717-6.111,21.768-18.199,28.682-23.463s6.691-3.747,6.558,17.664
				c-0.09,21.411-0.09,62.671-0.09,83.77c0,21.054,0,21.946,26.987,22.927c27.03,0.981,81.049,2.097,108.481,1.963
				c27.433-0.089,28.324-1.427,28.324-24.578c0-23.15-0.892-68.157-1.204-90.46c-0.356-22.258-0.134-21.857,5.71-17.887
				c5.799,3.97,17.218,11.419,23.239,15.166c6.066,3.702,6.69,3.702,11.776-3.212c5.04-6.914,14.452-20.742,19.091-27.968
				c4.595-7.271,4.371-7.895-16.147-19.448c-20.519-11.508-61.333-33.856-81.763-44.962c-20.385-11.063-20.385-10.839-28.815-10.795
				c-8.431,0.045-25.291-0.089-32.74-0.134C1869.426,799.49,1871.478,799.49,1858.407,806.404L1858.407,806.404z"/>
			<path fill-rule="evenodd" clip-rule="evenodd" fill="#FF665E" d="M1739.399,859.44c26.63,7.36,77.257,23.24,102.683,31.224
				c25.47,7.94,25.826,7.94,35.729,7.895c9.946-0.044,29.484-0.178,39.654-0.223c10.17-0.044,10.929-0.044,37.112-7.672
				c26.184-7.628,77.748-22.883,103.932-30.02c26.184-7.137,26.941-6.155,12.312,24.266c-14.676,30.377-44.74,90.238-59.772,120.124
				c-15.032,29.931-15.032,29.931-29.217,33.544c-14.14,3.612-42.465,10.884-56.738,14.496c-14.274,3.613-14.497,3.613-19.002,3.613
				c-4.506,0-13.293,0-17.754,0c-4.505,0-4.728,0-20.206-5.264s-46.212-15.79-61.69-21.321
				c-15.478-5.486-15.701-5.888-29.439-34.569c-13.738-28.638-40.948-85.51-54.776-113.701
				c-13.827-28.236-14.273-27.79-13.158-28.146C1710.138,853.285,1712.77,852.08,1739.399,859.44L1739.399,859.44z"/>
			<path fill-rule="evenodd" clip-rule="evenodd" fill="#E55955" d="M1869.113,898.203c2.766,0.402,5.085,0.402,8.698,0.357
				c9.946-0.044,29.484-0.178,39.654-0.223c4.729,0,7.404-0.044,11.598-0.803c-0.268,2.632-0.58,5.531-0.893,8.788
				c-3.345,31.625-10.705,94.431-14.229,126.458c-1.205,11.151-1.963,18.601-2.632,23.552c-2.008,0.356-3.167,0.356-5.219,0.356
				c-4.506,0-13.293,0-17.754,0c-1.739,0-2.854,0-4.46-0.313c-0.58-4.684-1.294-11.374-2.23-21.009
				c-3.033-31.76-8.877-95.323-11.731-127.885C1869.604,904.046,1869.336,900.968,1869.113,898.203L1869.113,898.203z"/>
			<path fill-rule="evenodd" clip-rule="evenodd" fill="#FCC3D0" d="M1941.776,935.583c-2.722,20.787-8.029,62.046-10.527,82.566
				c-2.542,20.519-2.319,20.34,8.118,17.798c10.438-2.543,31.046-7.36,41.707-10.305c10.66-2.988,11.33-4.059,22.392-27.566
				c11.107-23.507,32.607-69.362,43.714-92.78c11.063-23.373,11.731-24.221-5.397-19.403c-17.128,4.817-52.055,15.344-71.146,21.054
				c-19.091,5.665-22.392,6.468-24.176,7.048C1944.72,914.528,1944.497,914.796,1941.776,935.583L1941.776,935.583z"/>
			<path fill-rule="evenodd" clip-rule="evenodd" fill="#FCC3D0" d="M1896.322,933.218c2.811,0,5.665-0.223,7.182-0.089
				c1.562,0.089,1.784,0.536,1.16,16.772c-0.625,16.236-2.052,48.308-2.811,64.455c-0.758,16.103-0.848,16.326-1.963,16.281
				c-1.114-0.045-3.166-0.356-4.46-0.535c-1.249-0.179-1.695-0.179-2.988-16.326c-1.339-16.103-3.524-48.397-4.416-64.589
				c-0.893-16.192-0.446-16.281,1.159-16.237S1893.513,933.218,1896.322,933.218L1896.322,933.218z"/>
			<path fill-rule="evenodd" clip-rule="evenodd" fill="#F4C091" d="M1717.988,886.917c4.951-1.784,11.106-3.301,17.753,0.313
				c6.646,3.658,13.828,12.49,17.575,21.5c3.702,9.01,4.015,18.154,2.943,24.845c-1.07,6.691-3.479,10.839-6.958,12.579
				c-3.524,1.784-8.163,1.115-13.069-2.186c-4.951-3.301-10.215-9.189-15.39-18.199c-5.174-9.011-10.215-21.099-10.839-28.102
				C1709.335,890.62,1713.037,888.657,1717.988,886.917L1717.988,886.917z"/>
			<path fill-rule="evenodd" clip-rule="evenodd" fill="#F4C091" d="M2081.66,893.965c-2.944-2.989-8.877-7.628-13.917-8.743
				c-4.996-1.115-9.144,1.204-13.382,5.576c-4.282,4.327-8.742,10.616-11.775,16.37c-3.078,5.754-4.729,10.884-4.818,14.988
				c-0.134,4.059,1.294,7.003,4.148,9.947c2.855,2.988,7.138,5.933,12.268,6.289c5.084,0.313,11.018-2.007,16.236-8.832
				c5.219-6.869,9.724-18.288,11.954-24.711C2084.648,898.426,2084.648,896.999,2081.66,893.965L2081.66,893.965z"/>
			<path fill-rule="evenodd" clip-rule="evenodd" fill="#1D3B66" d="M1839.004,1131.581c2.364-4.193,1.829-7.494-1.16-29.797
				c-2.943-22.259-8.341-63.519-16.727-86.893c-8.386-23.373-19.805-28.859-29.44-29.217c-9.679-0.312-17.574,4.505-22.213,10.795
				c-4.595,6.245-5.889,13.917-3.837,30.064c2.097,16.147,7.583,40.725,14.81,62.002c7.271,21.321,16.281,39.298,24.177,48.309
				c7.895,9.01,14.72,9.01,20.741,6.468C1831.377,1140.814,1836.64,1135.773,1839.004,1131.581L1839.004,1131.581z"/>
			<path fill-rule="evenodd" clip-rule="evenodd" fill="#262626" d="M1809.207,1128.727c6.066-3.836,16.594-8.654,24.043-8.208
				c7.494,0.446,11.865,6.111,16.95,12.668c5.13,6.513,10.929,13.873,15.121,20.519c4.148,6.646,6.691,12.579,6.646,17.575
				c-0.089,4.996-2.721,9.055-11.151,11.731c-8.475,2.676-22.704,4.015-33.855,3.479c-11.152-0.58-19.181-2.989-23.106-11.33
				c-3.97-8.342-3.836-22.615-3.033-31.18S1803.186,1132.563,1809.207,1128.727L1809.207,1128.727z"/>
			<path fill-rule="evenodd" clip-rule="evenodd" fill="#1D3B66" d="M1959.44,1132.25c-2.811-3.479-3.212-5.397-0.224-27.7
				c2.944-22.259,9.233-64.901,18.11-88.989c8.832-24.042,20.251-29.528,29.931-29.886c9.68-0.312,17.574,4.505,22.169,10.795
				c4.595,6.245,5.933,13.917,3.836,30.064s-7.583,40.725-14.096,61.065c-6.512,20.296-14.051,36.354-18.556,45.364
				s-5.933,10.929-10.081,11.909c-4.148,0.981-10.929,0.981-16.995-1.561C1967.514,1140.814,1962.25,1135.773,1959.44,1132.25
				L1959.44,1132.25z"/>
			<path fill-rule="evenodd" clip-rule="evenodd" fill="#262626" d="M1989.683,1128.727c-6.021-3.836-16.549-8.654-24.042-8.208
				c-7.449,0.446-11.821,6.111-16.95,12.668c-5.085,6.513-10.929,13.873-15.077,20.519c-4.193,6.646-6.691,12.579-6.646,17.575
				s2.677,9.055,11.151,11.731c8.431,2.676,22.704,4.015,33.856,3.479c11.151-0.58,19.136-2.989,23.105-11.33
				c3.926-8.342,3.836-22.615,2.988-31.18C1997.266,1135.417,1995.749,1132.563,1989.683,1128.727L1989.683,1128.727z"/>
			<path fill-rule="evenodd" clip-rule="evenodd" fill="#F0A25E" d="M1918.536,782.718c-0.268,7.003-0.579,18.333-0.803,24.756
				c-0.223,6.423-0.313,7.939-1.918,9.055c-1.605,1.07-4.684,1.74-8.832,3.568c-4.192,1.784-9.456,4.773-12.355,5.978
				c-2.899,1.204-3.479,0.624-7.628-2.855c-4.193-3.524-11.954-9.992-15.924-13.56c-3.971-3.568-4.06-4.238-3.658-10.17
				c0.357-5.933,1.249-17.128,2.052-22.704c0.848-5.621,1.606-5.621,9.902-5.754c8.297-0.178,24.088-0.535,31.894,0.714
				C1919.071,772.949,1918.849,775.67,1918.536,782.718L1918.536,782.718z"/>
			<path fill-rule="evenodd" clip-rule="evenodd" fill="#F4C091" d="M1775.53,652.424c-0.09,21.456,0.892,54.642,3.077,77.346
				c2.186,22.75,5.621,35.105,16.059,45.989c10.482,10.884,28.013,20.34,46.167,24.042c18.154,3.702,36.979,1.65,54.642-5.754
				c17.709-7.36,34.258-20.073,45.053-35.461c10.839-15.434,15.835-33.588,19.76-55.579c3.881-22.035,6.646-47.951-4.104-68.515
				c-10.75-20.519-35.016-35.729-61.11-41.573c-26.094-5.843-54.062-2.319-73.867,2.319c-19.85,4.639-31.581,10.438-38.004,18.244
				C1776.734,621.245,1775.574,630.969,1775.53,652.424L1775.53,652.424z"/>
			<path fill-rule="evenodd" clip-rule="evenodd" fill="#1A1A1A" d="M1826.961,645.867c24.801,11.196,70.7,34.525,94.742,49.602
				c24.043,15.122,26.229,22.036,26.987,27.031c0.758,4.996,0.089,8.118,1.784,5.844c1.694-2.32,5.754-10.081,10.75-15.88
				c5.04-5.799,11.018-9.724,16.638-15.657c5.576-5.977,10.795-14.006,14.096-26.184c3.301-12.222,4.728-28.548-2.23-46.39
				c-6.959-17.842-22.259-37.112-37.201-49.602c-14.987-12.445-29.618-18.154-41.395-19.403c-11.731-1.205-20.519,1.962-26.362,2.23
				c-5.799,0.267-8.608-2.454-23.373-1.16c-14.765,1.249-41.483,6.423-59.594,24.623s-27.611,49.334-30.511,67.667
				c-2.943,18.333,0.714,23.775,2.498,25.782c1.829,1.963,1.829,0.446,4.996-6.468c3.212-6.914,9.635-19.181,14.675-25.737
				C1798.502,635.563,1802.204,634.671,1826.961,645.867L1826.961,645.867z"/>
			<path fill-rule="evenodd" clip-rule="evenodd" fill="#F0A25E" d="M1973.224,712.642c-1.784,0.937-4.685,2.721-6.825,5.041
				c-2.186,2.319-3.613,5.174-2.943,7.449c0.669,2.23,3.435,3.925,5.486,4.238c2.096,0.312,3.435-0.714,4.416-3.479
				c0.98-2.721,1.517-7.226,2.007-9.902c0.446-2.676,0.759-3.569,0.58-3.97S1975.052,711.706,1973.224,712.642L1973.224,712.642z"/>
			<path fill-rule="evenodd" clip-rule="evenodd" fill="#F0A25E" d="M1825.935,733.563c0.134,5.174,2.677,7.315,6.2,7.806
				c3.523,0.446,7.984-0.758,11.24-1.829c3.301-1.026,5.309-1.962,5.487-3.568c0.178-1.65-1.517-4.015-3.926-9.055
				s-5.531-12.757-7.717-16.326c-2.23-3.613-3.523-3.033-4.46-2.097c-0.938,0.981-1.606,2.275-3.078,7.003
				C1828.209,720.225,1825.846,728.433,1825.935,733.563L1825.935,733.563z"/>
			<path d="M1808.984,746.097c-0.313-0.714,0-1.562,0.714-1.963c0.714-0.356,1.65-0.044,2.007,0.714l0.045,0.044
				c1.65,3.703,3.301,7.405,6.423,9.724c1.562,1.205,3.524,2.097,5.888,2.721c2.454,0.669,5.354,1.115,8.743,1.338
				c3.702,0.223,7.94,0.223,11.865-0.312c3.122-0.401,6.021-1.115,8.297-2.275c4.996-2.587,7.137-7.539,9.278-12.49
				c0.312-0.758,1.204-1.115,1.962-0.803c0.759,0.357,1.115,1.249,0.804,2.007c-2.364,5.442-4.729,10.884-10.661,13.961
				c-2.587,1.338-5.844,2.141-9.278,2.587c-4.148,0.58-8.608,0.58-12.489,0.312c-3.524-0.223-6.603-0.669-9.278-1.427
				c-2.766-0.714-5.085-1.784-6.959-3.212C1812.643,754.215,1810.813,750.156,1808.984,746.097L1808.984,746.097z"/>
			<path fill-rule="evenodd" clip-rule="evenodd" fill="#FFFFFF" d="M1871.834,689.893c-5.486,1.026-9.145,6.334-8.118,11.821
				c0.981,5.531,6.289,9.188,11.82,8.163c5.486-1.026,9.145-6.29,8.118-11.821C1882.629,692.525,1877.365,688.912,1871.834,689.893
				L1871.834,689.893z"/>
			<path fill-rule="evenodd" clip-rule="evenodd" fill="#FFFFFF" d="M1797.208,693.596c-5.531,1.026-9.144,6.334-8.163,11.82
				c1.026,5.531,6.335,9.144,11.821,8.163c5.531-1.026,9.188-6.334,8.163-11.821
				C1808.003,696.227,1802.739,692.569,1797.208,693.596L1797.208,693.596z"/>
			<path fill-rule="evenodd" clip-rule="evenodd" fill="#1A1A1A" d="M1871.478,701.491c-1.695,0.313-2.766,1.874-2.454,3.568
				c0.268,1.65,1.874,2.766,3.568,2.454c1.651-0.313,2.767-1.918,2.454-3.569C1874.733,702.249,1873.128,701.179,1871.478,701.491
				L1871.478,701.491z"/>
			<path fill-rule="evenodd" clip-rule="evenodd" fill="#1A1A1A" d="M1797.788,703.542c-1.695,0.313-2.81,1.918-2.498,3.569
				c0.313,1.695,1.918,2.766,3.568,2.453c1.695-0.313,2.811-1.874,2.498-3.568C1801.045,704.346,1799.438,703.23,1797.788,703.542
				L1797.788,703.542z"/>
		</g>
		<g>
			<path fill-rule="evenodd" clip-rule="evenodd" fill="#F4C091" d="M537.817,841.165c11.845,0,21.476-9.631,21.476-21.476
				s-9.631-21.476-21.476-21.476c-11.804,0-21.476,9.632-21.476,21.476S526.014,841.165,537.817,841.165L537.817,841.165z"/>
			<path fill-rule="evenodd" clip-rule="evenodd" fill="#F2B27A" d="M545.031,815.96c-1.722,0.738-4.467,2.254-6.558,4.262
				c-2.131,2.008-3.606,4.508-3.156,6.599c0.492,2.131,2.951,3.812,4.836,4.221c1.845,0.41,3.156-0.451,4.222-2.91
				c1.024-2.459,1.844-6.558,2.377-8.976c0.574-2.459,0.943-3.238,0.779-3.606C547.367,815.181,546.711,815.222,545.031,815.96
				L545.031,815.96z"/>
			<path fill-rule="evenodd" clip-rule="evenodd" fill="#F4C091" d="M373.306,842.395c11.845,0,21.476-9.672,21.476-21.517
				c0-11.804-9.631-21.476-21.476-21.476c-11.803,0-21.476,9.672-21.476,21.476C351.83,832.723,361.502,842.395,373.306,842.395
				L373.306,842.395z"/>
			<path fill-rule="evenodd" clip-rule="evenodd" fill="#F2B27A" d="M366.134,817.148c1.68,0.779,4.426,2.254,6.558,4.262
				c2.131,2.008,3.606,4.549,3.115,6.64c-0.492,2.09-2.91,3.771-4.795,4.221c-1.885,0.41-3.197-0.451-4.221-2.91
				c-1.066-2.5-1.844-6.558-2.418-9.017c-0.574-2.418-0.901-3.197-0.778-3.565C363.757,816.37,364.412,816.411,366.134,817.148
				L366.134,817.148z"/>
			<path fill-rule="evenodd" clip-rule="evenodd" fill="#FF0000" d="M420.561,913.913c-11.968,6.353-37.788,19.058-58.198,31.64
				c-20.451,12.541-35.452,24.959-42.993,31.271c-7.5,6.271-7.5,6.475-3.156,13.565c4.344,7.049,12.992,20.943,17.951,27.828
				c4.918,6.845,6.147,6.64,13.197,0.984c7.09-5.615,20-16.722,26.353-21.559c6.353-4.836,6.147-3.442,6.024,16.23
				c-0.082,19.672-0.082,57.583-0.082,76.969c0,19.345,0,20.164,24.795,21.065c24.836,0.902,74.428,1.927,99.674,1.804
				c25.206-0.082,26.025-1.312,26.025-22.583c0-21.271-0.82-62.624-1.147-83.116c-0.287-20.451-0.082-20.082,5.246-16.435
				c5.369,3.647,15.861,10.492,21.394,13.935c5.533,3.401,6.148,3.401,10.779-2.95c4.672-6.354,13.32-19.059,17.583-25.697
				c4.221-6.681,4.017-7.255-14.836-17.87c-18.853-10.573-56.354-31.107-75.125-41.312c-18.729-10.164-18.771-9.959-26.517-9.918
				s-23.238-0.082-30.042-0.123C430.684,907.56,432.569,907.56,420.561,913.913L420.561,913.913z"/>
			<path fill-rule="evenodd" clip-rule="evenodd" fill="#666633" d="M388.839,1135.68c9.304,5.287,23.033,12.213,40.042,15.41
				c16.968,3.196,37.214,2.623,58.567-2.746c21.312-5.328,43.73-15.451,55.821-24.304c12.09-8.853,13.894-16.394,8.115-22.91
				s-19.14-11.968-50.821-12.869c-31.722-0.943-81.723,2.705-107.707,6.803c-25.943,4.14-27.828,8.729-27.665,13.525
				c0.123,4.754,2.295,9.672,5.861,13.935C374.577,1126.785,379.495,1130.434,388.839,1135.68L388.839,1135.68z"/>
			<path fill-rule="evenodd" clip-rule="evenodd" fill="#F0A25E" d="M475.808,892.15c-0.246,6.435-0.533,16.845-0.738,22.747
				c-0.205,5.901-0.328,7.295-1.762,8.319c-1.476,0.984-4.304,1.599-8.115,3.279c-3.853,1.639-8.688,4.385-11.353,5.492
				s-3.197,0.574-7.008-2.623c-3.853-3.238-10.984-9.181-14.631-12.459c-3.648-3.279-3.729-3.893-3.402-9.344
				c0.369-5.451,1.188-15.738,1.926-20.861c0.779-5.164,1.476-5.164,9.099-5.287c7.623-0.164,22.131-0.492,29.304,0.656
				C476.259,883.174,476.054,885.674,475.808,892.15L475.808,892.15z"/>
			<path fill-rule="evenodd" clip-rule="evenodd" fill="#FFB129" d="M311.214,962.644c24.468,6.762,70.944,21.353,94.346,28.688
				c23.402,7.296,23.73,7.296,32.829,7.255c9.14-0.041,27.091-0.164,36.435-0.205c9.304-0.041,10.041-0.041,34.099-7.05
				c24.017-7.008,71.436-21.024,95.494-27.582c24.058-6.558,24.755-5.656,11.312,22.295
				c-13.483,27.911-41.107,82.912-54.919,110.371c-13.812,27.501-13.812,27.501-26.845,30.82c-12.992,3.32-39.017,10-52.132,13.32
				c-13.115,3.319-13.32,3.319-17.459,3.319c-4.139,0-12.213,0-16.353,0s-4.303,0-18.525-4.836s-42.501-14.509-56.723-19.591
				c-14.222-5.041-14.385-5.41-27.008-31.763c-12.624-26.312-37.624-78.567-50.329-104.469
				c-12.705-25.943-13.115-25.534-12.09-25.861C284.329,956.987,286.747,955.881,311.214,962.644L311.214,962.644z"/>
			<path fill-rule="evenodd" clip-rule="evenodd" fill="#E29823" d="M430.397,998.259c2.542,0.369,4.672,0.369,7.992,0.328
				c9.14-0.041,27.091-0.164,36.435-0.205c4.345,0,6.804-0.041,10.656-0.738c-0.246,2.418-0.533,5.082-0.861,8.074
				c-3.074,29.058-9.795,86.764-13.033,116.19c-1.147,10.246-1.844,17.091-2.418,21.641c-1.844,0.327-2.91,0.327-4.795,0.327
				c-4.139,0-12.213,0-16.353,0c-1.599,0-2.582,0-4.058-0.286c-0.574-4.304-1.188-10.451-2.049-19.305
				c-2.828-29.181-8.156-87.583-10.779-117.502C430.848,1003.628,430.602,1000.8,430.397,998.259L430.397,998.259z"/>
			<path fill-rule="evenodd" clip-rule="evenodd" fill="#E29823" d="M497.161,1032.604c-2.542,19.099-7.377,57.01-9.673,75.862
				c-2.336,18.853-2.131,18.688,7.459,16.353s28.525-6.762,38.32-9.467c9.795-2.746,10.369-3.73,20.574-25.329
				c10.164-21.599,29.959-63.73,40.124-85.247c10.206-21.477,10.82-22.255-4.918-17.828c-15.738,4.426-47.829,14.099-65.37,19.345
				c-17.542,5.204-20.615,5.942-22.213,6.476C499.866,1013.259,499.661,1013.505,497.161,1032.604L497.161,1032.604z"/>
			<path fill-rule="evenodd" clip-rule="evenodd" fill="#FFB129" d="M455.397,1030.432c2.582,0,5.205-0.205,6.599-0.082
				c1.394,0.082,1.599,0.492,1.066,15.41c-0.574,14.918-1.886,44.386-2.582,59.223c-0.697,14.795-0.82,15-1.804,14.959
				c-1.024-0.041-2.951-0.328-4.098-0.492s-1.558-0.164-2.787-15c-1.188-14.795-3.197-44.468-4.017-59.346
				c-0.819-14.877-0.41-14.959,1.066-14.918C450.315,1030.227,452.815,1030.432,455.397,1030.432L455.397,1030.432z"/>
			<path fill-rule="evenodd" clip-rule="evenodd" fill="#F4C091" d="M291.542,987.89c4.549-1.64,10.205-3.033,16.312,0.287
				c6.106,3.36,12.705,11.476,16.147,19.754c3.402,8.279,3.689,16.681,2.705,22.828c-0.983,6.148-3.197,9.96-6.435,11.558
				c-3.197,1.64-7.459,1.025-11.967-2.008c-4.549-3.033-9.386-8.442-14.14-16.722c-4.754-8.278-9.385-19.386-10-25.82
				C283.591,991.291,286.993,989.488,291.542,987.89L291.542,987.89z"/>
			<path fill-rule="evenodd" clip-rule="evenodd" fill="#F4C091" d="M625.688,994.365c-2.705-2.746-8.156-7.009-12.787-8.033
				c-4.59-1.024-8.402,1.106-12.336,5.123c-3.935,3.976-7.992,9.795-10.82,15.041c-2.787,5.287-4.303,10.042-4.385,13.771
				c-0.123,3.729,1.188,6.435,3.812,9.139c2.623,2.746,6.558,5.451,11.271,5.779c4.672,0.287,10.124-1.844,14.918-8.115
				c4.795-6.312,8.935-16.804,10.984-22.705C628.434,998.464,628.434,997.152,625.688,994.365L625.688,994.365z"/>
			<path fill-rule="evenodd" clip-rule="evenodd" fill="#666633" d="M402.733,1212.689c2.172-3.853,1.639-6.886-1.066-27.378
				c-2.705-20.451-7.664-58.362-15.369-79.838s-18.197-26.517-27.09-26.845c-8.853-0.287-16.107,4.14-20.37,9.918
				c-4.221,5.738-5.451,12.787-3.524,27.624c1.926,14.836,6.967,37.419,13.607,56.968c6.68,19.591,14.959,36.107,22.213,44.387
				c7.254,8.278,13.525,8.278,19.058,5.942C395.725,1221.173,400.561,1216.542,402.733,1212.689L402.733,1212.689z"/>
			<path fill-rule="evenodd" clip-rule="evenodd" fill="#191919" d="M375.355,1210.066c5.533-3.525,15.247-7.951,22.091-7.541
				c6.844,0.409,10.902,5.614,15.574,11.639c4.713,5.984,10.042,12.746,13.894,18.854c3.812,6.106,6.147,11.558,6.106,16.147
				c-0.082,4.591-2.5,8.32-10.246,10.779c-7.787,2.459-20.902,3.688-31.107,3.196c-10.246-0.532-17.624-2.746-21.23-10.41
				c-3.647-7.664-3.565-20.778-2.787-28.647C368.388,1216.214,369.822,1213.591,375.355,1210.066L375.355,1210.066z"/>
			<path fill-rule="evenodd" clip-rule="evenodd" fill="#666633" d="M513.391,1213.304c-2.623-3.196-2.951-4.959-0.205-25.451
				c2.705-20.451,8.484-59.632,16.64-81.764c8.115-22.091,18.607-27.132,27.5-27.46c8.853-0.287,16.147,4.14,20.369,9.918
				c4.221,5.738,5.451,12.787,3.524,27.624c-1.926,14.836-6.967,37.419-12.951,56.107c-5.983,18.648-12.91,33.402-17.049,41.682
				c-4.139,8.278-5.451,10.041-9.262,10.942s-10.042,0.901-15.615-1.435C520.809,1221.173,515.973,1216.542,513.391,1213.304
				L513.391,1213.304z"/>
			<path fill-rule="evenodd" clip-rule="evenodd" fill="#191919" d="M541.178,1210.066c-5.533-3.525-15.247-7.951-22.091-7.541
				c-6.844,0.409-10.902,5.614-15.574,11.639c-4.713,5.984-10.042,12.746-13.853,18.854c-3.853,6.106-6.188,11.558-6.106,16.147
				c0.041,4.591,2.459,8.32,10.205,10.779c7.787,2.459,20.902,3.688,31.148,3.196c10.205-0.532,17.583-2.746,21.23-10.41
				c3.607-7.664,3.525-20.778,2.746-28.647C548.146,1216.214,546.711,1213.591,541.178,1210.066L541.178,1210.066z"/>
			<path fill-rule="evenodd" clip-rule="evenodd" fill="#F4C091" d="M373.142,762.353c-1.312,19.672-2.336,50.124-1.64,71.107
				c0.738,20.984,3.156,32.46,12.131,43.075c8.976,10.574,24.509,20.247,45.657,24.837c21.148,4.549,47.952,3.975,66.723-1.435
				c18.73-5.41,29.427-15.656,34.714-26.189c5.328-10.533,5.205-21.353,5.943-40.739c0.697-19.385,2.254-47.296,0.942-67.993
				c-1.312-20.697-5.533-34.14-20.287-42.542c-14.713-8.361-40.042-11.681-59.509-12.746c-19.509-1.107-33.198,0.082-45.575,2.992
				c-12.377,2.91-23.484,7.582-29.837,14.303C376.052,733.786,374.454,742.68,373.142,762.353L373.142,762.353z"/>
			<path fill-rule="evenodd" clip-rule="evenodd" fill="#1A1A1A" d="M407.692,747.147c22.091,11.722,62.829,35.698,87.501,50.165
				c24.714,14.467,33.32,19.427,38.648,19.017c5.328-0.41,7.418-6.147,11.107-12.541c3.647-6.394,8.894-13.484,12.623-24.468
				c3.73-10.984,5.943-25.902,0.615-42.665c-5.369-16.722-18.279-35.288-31.271-47.583c-13.033-12.336-26.107-18.361-36.804-20.206
				c-10.697-1.803-18.976,0.615-24.304,0.533c-5.369-0.123-7.787-2.746-21.394-2.418c-13.607,0.287-38.443,3.525-56.067,19.14
				c-17.664,15.656-28.156,43.689-30.492,67.092c-2.336,23.402,3.524,42.173,8.32,48.361c4.795,6.23,8.524-0.123,10.451-13.074
				c1.926-12.91,2.049-32.378,3.771-42.419C382.159,736.04,385.601,735.466,407.692,747.147L407.692,747.147z"/>
			<path fill-rule="evenodd" clip-rule="evenodd" fill="#F2B27A" d="M444.537,822.354c-0.205,4.754,2.008,6.844,5.123,7.992
				c3.156,1.148,7.172,1.353,10.247,0.574c3.033-0.778,5.123-2.541,5.574-5.41s-0.697-6.844-2.582-11.599
				c-1.926-4.754-4.631-10.328-6.599-12.869c-1.926-2.541-3.156-2.09-4.099-1.271c-0.901,0.779-1.557,1.967-3.196,6.229
				C447.365,810.263,444.742,817.599,444.537,822.354L444.537,822.354z"/>
			<path d="M430.151,841.821c-0.205-0.697,0.205-1.476,0.943-1.722c0.696-0.205,1.475,0.205,1.721,0.943
				c0.533,1.762,1.106,3.565,1.926,5.164c0.779,1.557,1.803,2.951,3.32,4.098c1.557,1.147,3.647,2.049,6.147,2.705
				c2.623,0.738,5.697,1.188,8.935,1.312c3.443,0.164,7.049,0,10.328-0.574c2.869-0.451,5.41-1.229,7.254-2.295
				c1.885-1.065,3.033-2.5,3.893-4.098c0.861-1.68,1.394-3.647,1.886-5.615c0.205-0.738,0.983-1.148,1.721-0.984
				c0.738,0.205,1.188,0.984,0.983,1.721c-0.574,2.09-1.147,4.181-2.131,6.148c-1.066,2.049-2.582,3.853-4.959,5.246
				c-2.172,1.229-5.041,2.09-8.197,2.623c-3.442,0.574-7.295,0.738-10.902,0.574c-3.483-0.123-6.721-0.615-9.549-1.353
				c-2.787-0.779-5.205-1.844-7.049-3.197c-1.926-1.435-3.238-3.156-4.18-5.041C431.34,845.633,430.766,843.747,430.151,841.821
				L430.151,841.821z"/>
			<path fill-rule="evenodd" clip-rule="evenodd" fill="#BCEDED" d="M416.217,834.69c15.287,0,27.746-12.459,27.746-27.747
				s-12.459-27.747-27.746-27.747c-15.288,0-27.747,12.459-27.747,27.747S400.929,834.69,416.217,834.69L416.217,834.69z"/>
			<path d="M416.217,776.41c8.442,0,16.066,3.402,21.599,8.935c5.533,5.533,8.935,13.156,8.935,21.599s-3.402,16.066-8.935,21.599
				c-5.533,5.533-13.156,8.935-21.599,8.935c-8.443,0-16.066-3.401-21.599-8.935c-5.533-5.533-8.935-13.156-8.935-21.599
				s3.402-16.066,8.935-21.599C400.151,779.812,407.774,776.41,416.217,776.41L416.217,776.41z M433.881,789.279
				c-4.508-4.509-10.779-7.336-17.664-7.336c-6.886,0-13.156,2.787-17.665,7.336c-4.508,4.508-7.336,10.779-7.336,17.664
				s2.828,13.156,7.336,17.664s10.779,7.295,17.665,7.295c6.885,0,13.156-2.787,17.664-7.295s7.336-10.779,7.336-17.664
				S438.389,793.787,433.881,789.279L433.881,789.279z"/>
			<path fill-rule="evenodd" clip-rule="evenodd" fill="#BCEDED" d="M492.571,834.69c15.287,0,27.746-12.459,27.746-27.747
				s-12.459-27.747-27.746-27.747c-15.288,0-27.788,12.459-27.788,27.747S477.283,834.69,492.571,834.69L492.571,834.69z"/>
			<path d="M492.571,776.41c8.401,0,16.066,3.402,21.558,8.935c5.533,5.533,8.976,13.156,8.976,21.599s-3.443,16.066-8.976,21.599
				c-5.492,5.533-13.156,8.935-21.558,8.935c-8.443,0-16.066-3.401-21.599-8.935c-5.533-5.533-8.935-13.156-8.935-21.599
				s3.402-16.066,8.935-21.599C476.505,779.812,484.128,776.41,492.571,776.41L492.571,776.41z M510.235,789.279
				c-4.549-4.509-10.779-7.336-17.664-7.336c-6.927,0-13.156,2.787-17.665,7.336c-4.549,4.508-7.336,10.779-7.336,17.664
				s2.787,13.156,7.336,17.664c4.508,4.508,10.738,7.295,17.665,7.295c6.885,0,13.115-2.787,17.664-7.295
				c4.508-4.508,7.295-10.779,7.295-17.664S514.743,793.787,510.235,789.279L510.235,789.279z"/>
			<path d="M443.021,801.083L443.021,801.083c3.606-1.024,7.213-2.049,11.106-2.049c2.009,0,3.976,0.287,5.943,0.697
				c1.844,0.369,3.729,0.902,5.615,1.394l-1.434,5.328c-1.762-0.451-3.525-0.943-5.328-1.312c-1.639-0.369-3.238-0.574-4.795-0.574
				c-3.115,0-6.353,0.901-9.549,1.844l0,0l0,0l-0.615-2.131L443.021,801.083z"/>
		</g>
	</g>
</g>
</svg>
